<?xml version="1.0" encoding="utf-8"?>
<!-- Generator: Adobe Illustrator 16.0.0, SVG Export Plug-In . SVG Version: 6.00 Build 0)  -->
<!DOCTYPE svg PUBLIC "-//W3C//DTD SVG 1.1//EN" "http://www.w3.org/Graphics/SVG/1.1/DTD/svg11.dtd">
<svg version="1.1" id="Layer_1" xmlns="http://www.w3.org/2000/svg" xmlns:xlink="http://www.w3.org/1999/xlink" x="0px" y="0px"
	 width="20px" height="20px" viewBox="0 0 20 20" enable-background="new 0 0 20 20" xml:space="preserve">
<g>
	<path fill="#9F9E9E" d="M12.448,17.552C12.448,18.904,11.352,20,10,20l0,0c-1.352,0-2.447-1.096-2.447-2.448V2.448
		C7.553,1.096,8.648,0,10,0l0,0c1.352,0,2.448,1.096,2.448,2.448V17.552z"/>
	<path fill="#9F9E9E" d="M17.553,7.552C18.904,7.552,20,8.648,20,10l0,0c0,1.351-1.096,2.448-2.447,2.448H2.449
		C1.096,12.448,0,11.352,0,10l0,0c0-1.353,1.096-2.449,2.449-2.449H17.553z"/>
</g>
</svg>
