<?xml version="1.0" encoding="utf-8"?>
<!-- Generator: Adobe Illustrator 16.0.0, SVG Export Plug-In . SVG Version: 6.00 Build 0)  -->
<!DOCTYPE svg PUBLIC "-//W3C//DTD SVG 1.1//EN" "http://www.w3.org/Graphics/SVG/1.1/DTD/svg11.dtd">
<svg version="1.1" id="Layer_1" xmlns="http://www.w3.org/2000/svg" xmlns:xlink="http://www.w3.org/1999/xlink" x="0px" y="0px"
	 width="15.969px" height="26.015px" viewBox="0 0 15.969 26.015" enable-background="new 0 0 15.969 26.015" xml:space="preserve">
<g>
	<g>
		<path fill-rule="evenodd" clip-rule="evenodd" fill="#A0A09F" d="M15.472,21.943L6.51,12.994l8.952-8.938
			c0.787-0.786,0.627-2.22-0.356-3.201c-0.983-0.982-2.419-1.142-3.206-0.356L2.22,10.164c-0.474,0.122-0.946,0.379-1.346,0.778
			c-0.58,0.579-0.867,1.31-0.854,1.976c-0.083,0.713,0.203,1.531,0.837,2.164c0.403,0.402,0.881,0.658,1.36,0.776l9.675,9.661
			c0.787,0.784,2.225,0.62,3.214-0.367S16.258,22.728,15.472,21.943z"/>
	</g>
</g>
</svg>
