<?xml version="1.0" encoding="utf-8"?>
<!-- Generator: Adobe Illustrator 16.0.0, SVG Export Plug-In . SVG Version: 6.00 Build 0)  -->
<!DOCTYPE svg PUBLIC "-//W3C//DTD SVG 1.1//EN" "http://www.w3.org/Graphics/SVG/1.1/DTD/svg11.dtd">
<svg version="1.1" id="Layer_1" xmlns="http://www.w3.org/2000/svg" xmlns:xlink="http://www.w3.org/1999/xlink" x="0px" y="0px"
	 width="26.392px" height="26.015px" viewBox="0 0 26.392 26.015" enable-background="new 0 0 26.392 26.015" xml:space="preserve">
<g>
	<g>
		<path fill-rule="evenodd" clip-rule="evenodd" fill="#A0A09F" d="M25.896,21.943l-8.963-8.949l8.951-8.938
			c0.787-0.786,0.628-2.219-0.355-3.201c-0.984-0.982-2.42-1.142-3.206-0.356l-9.181,9.167L4.039,0.558
			C3.257-0.223,1.833-0.064,0.858,0.912c-0.977,0.977-1.135,2.401-0.354,3.182l8.881,8.884l-8.893,8.896
			c-0.779,0.779-0.616,2.207,0.364,3.189c0.981,0.98,2.409,1.145,3.188,0.363l9.081-9.083l9.188,9.175
			c0.786,0.784,2.225,0.62,3.214-0.367C26.517,24.165,26.682,22.728,25.896,21.943z"/>
	</g>
</g>
</svg>
