<?xml version="1.0" encoding="utf-8"?>
<!-- Generator: Adobe Illustrator 16.0.0, SVG Export Plug-In . SVG Version: 6.00 Build 0)  -->
<!DOCTYPE svg PUBLIC "-//W3C//DTD SVG 1.1//EN" "http://www.w3.org/Graphics/SVG/1.1/DTD/svg11.dtd">
<svg version="1.1" id="Layer_1" xmlns="http://www.w3.org/2000/svg" xmlns:xlink="http://www.w3.org/1999/xlink" x="0px" y="0px"
	 width="20px" height="17.209px" viewBox="246 247.395 20 17.209" enable-background="new 246 247.395 20 17.209"
	 xml:space="preserve">
<path fill="#323232" d="M256.154,247.397c-5.522-0.109-10.068,3.294-10.153,7.6c-0.029,1.498,0.484,2.907,1.399,4.113h0
	c1.573,2.021-0.144,5.494-0.144,5.494l5.068-2.183c1.092,0.345,2.279,0.546,3.522,0.57c5.522,0.108,10.068-3.294,10.153-7.6
	C266.084,251.085,261.676,247.506,256.154,247.397 M251.725,256.433c-0.68,0-1.232-0.551-1.232-1.231s0.552-1.232,1.232-1.232
	s1.232,0.552,1.232,1.232S252.406,256.433,251.725,256.433 M255.831,256.433c-0.681,0-1.232-0.551-1.232-1.231
	s0.551-1.232,1.232-1.232s1.231,0.552,1.231,1.232S256.512,256.433,255.831,256.433 M259.937,256.433
	c-0.681,0-1.231-0.551-1.231-1.231s0.551-1.232,1.231-1.232s1.231,0.552,1.231,1.232S260.617,256.433,259.937,256.433"/>
</svg>
