<?xml version="1.0" encoding="utf-8"?>
<!-- Generator: Adobe Illustrator 16.0.0, SVG Export Plug-In . SVG Version: 6.00 Build 0)  -->
<!DOCTYPE svg PUBLIC "-//W3C//DTD SVG 1.1//EN" "http://www.w3.org/Graphics/SVG/1.1/DTD/svg11.dtd">
<svg version="1.1" id="Safety" xmlns="http://www.w3.org/2000/svg" xmlns:xlink="http://www.w3.org/1999/xlink" x="0px" y="0px"
	 width="15px" height="17px" viewBox="62 59.103 15 17" enable-background="new 62 59.103 15 17" xml:space="preserve">
<path d="M76.039,66.476c0.068-0.361,0.107-0.732,0.107-1.112c0-3.452-2.981-6.261-6.646-6.261c-3.665,0-6.646,2.809-6.646,6.261
	c0,0.38,0.038,0.751,0.107,1.112C62.384,66.813,62,67.402,62,68.076v6.129c0,1.048,0.929,1.897,2.075,1.897h10.85
	c1.146,0,2.074-0.85,2.074-1.897H77v-6.129C77,67.402,76.617,66.813,76.039,66.476z M70.416,71.828v1.332
	c0,0.463-0.41,0.838-0.916,0.838s-0.916-0.375-0.916-0.838v-1.333c-0.587-0.297-0.986-0.867-0.986-1.524
	c0-0.961,0.851-1.74,1.902-1.74s1.902,0.779,1.902,1.74C71.402,70.96,71.004,71.531,70.416,71.828z M73.617,66.178h-8.234
	c-0.057-0.263-0.086-0.536-0.086-0.814c0-2.22,1.885-4.027,4.204-4.027s4.204,1.806,4.204,4.027
	C73.704,65.642,73.674,65.915,73.617,66.178z"/>
</svg>
