<?xml version="1.0" encoding="utf-8"?>
<!-- Generator: Adobe Illustrator 16.0.0, SVG Export Plug-In . SVG Version: 6.00 Build 0)  -->
<!DOCTYPE svg PUBLIC "-//W3C//DTD SVG 1.1//EN" "http://www.w3.org/Graphics/SVG/1.1/DTD/svg11.dtd">
<svg version="1.1" id="Layer_1" xmlns="http://www.w3.org/2000/svg" xmlns:xlink="http://www.w3.org/1999/xlink" x="0px" y="0px"
	 width="20px" height="20px" viewBox="0 0 20 20" enable-background="new 0 0 20 20" xml:space="preserve">
<g>
	<path fill="#FEFEFE" d="M8.216,5.153C6.088,5.548,7.261,9.631,9.323,9.151C11.461,8.656,10.092,4.805,8.216,5.153z"/>
	<path fill="#FEFEFE" d="M9.737,11.623c-0.223-0.157-0.565-0.096-0.93-0.065h0.005c-1.243,0.101-2.486,0.454-2.497,1.738
		c-0.015,1.526,2.922,2.148,4.241,1.314c0.363-0.233,0.804-0.662,0.712-1.37C11.183,12.588,10.253,11.986,9.737,11.623z"/>
	<path fill="#FEFEFE" d="M15,0H5C2.238,0,0,2.238,0,5v10c0,2.762,2.238,5,5,5h10c2.762,0,5-2.238,5-5V5C20,2.238,17.762,0,15,0z
		 M12.103,13.746c-1.142,2.37-5.695,2.345-6.833,0.783c-0.298-0.415-0.444-0.971-0.237-1.557c0.516-1.472,2.577-1.805,4.023-1.865
		c-0.03-0.086-0.157-0.207-0.223-0.313c-0.375-0.605-0.196-0.821-0.084-1.213C5.144,9.751,5.381,6.629,6.29,5.653
		C6.604,5.315,6.866,5.113,7.407,4.9c0.466-0.187,0.996-0.288,1.542-0.328c0.414-0.03,3.447-0.061,3.71-0.005
		c-0.086,0.04-0.269,0.172-0.369,0.232c-0.521,0.323-0.445,0.384-0.874,0.379c-0.192-0.005-0.42-0.015-0.606,0.005
		c0.753,0.46,1.232,1.779,0.809,2.744c-0.455,1.037-2.042,1.436-1.446,2.255C10.531,10.678,13.089,11.698,12.103,13.746z
		 M16.581,10.092h-1.738l-0.006,1.643h-0.576l-0.02-1.648h-1.784l0.005-0.565h1.794V7.862l0.602,0.005
		c-0.056,0.238-0.03,1.37-0.015,1.658h1.738V10.092z"/>
</g>
</svg>
