<?xml version="1.0" encoding="utf-8"?>
<!-- Generator: Adobe Illustrator 16.0.0, SVG Export Plug-In . SVG Version: 6.00 Build 0)  -->
<!DOCTYPE svg PUBLIC "-//W3C//DTD SVG 1.1//EN" "http://www.w3.org/Graphics/SVG/1.1/DTD/svg11.dtd">
<svg version="1.1" id="Layer_1" xmlns="http://www.w3.org/2000/svg" xmlns:xlink="http://www.w3.org/1999/xlink" x="0px" y="0px"
	 width="20px" height="20px" viewBox="0 0 20 20" enable-background="new 0 0 20 20" xml:space="preserve">
<path fill="#FEFEFE" d="M15,0H5C2.238,0,0,2.238,0,5v10c0,2.762,2.238,5,5,5h10c2.762,0,5-2.238,5-5V5C20,2.238,17.762,0,15,0z
	 M16.366,6.375c0,0-0.144,0.575-0.719,1.003c-0.575,0.43-0.719,0.577-0.719,0.577s0.719,2.726-2.008,5.161
	c-2.721,2.436-6.593,1.574-6.878,1.433c-0.286-0.144-1.29-0.72-1.29-0.72s1.575-0.285,2.294-0.575
	c0.718-0.285,1.003-0.575,1.003-0.575s-1.146-0.144-1.574-0.429c-0.429-0.285-0.719-1.146-0.719-1.146h1.146
	c0,0-0.86-0.429-1.289-1.005C5.187,9.524,5.187,8.669,5.187,8.669l0.718,0.142c0,0-0.861-0.861-0.718-2.008
	c0.143-1.146,0.286-1.289,0.286-1.289S6.476,7.521,8.34,7.808c1.866,0.285,2.008,0.285,2.008,0.285
	c-0.605-4.021,4.482-2.986,4.159-2.009c0,0,1.146-0.574,1.288-0.86c0.143-0.285-0.285,1.289-0.285,1.289l0.861-0.143L16.366,6.375z"
	/>
</svg>
