<?xml version="1.0" encoding="utf-8"?>
<!-- Generator: Adobe Illustrator 16.0.0, SVG Export Plug-In . SVG Version: 6.00 Build 0)  -->
<!DOCTYPE svg PUBLIC "-//W3C//DTD SVG 1.1//EN" "http://www.w3.org/Graphics/SVG/1.1/DTD/svg11.dtd">
<svg version="1.1" id="Layer_1" xmlns="http://www.w3.org/2000/svg" xmlns:xlink="http://www.w3.org/1999/xlink" x="0px" y="0px"
	 width="20px" height="20px" viewBox="0 0 20 20" enable-background="new 0 0 20 20" xml:space="preserve">
<path fill="#FEFEFE" d="M15,0H5C2.238,0,0,2.238,0,5v10c0,2.762,2.238,5,5,5h10c2.762,0,5-2.238,5-5V5C20,2.238,17.762,0,15,0z
	 M13.107,6.146H11.98c0,0-0.804-0.159-0.804,0.963c0,0.772,0,0.935,0,0.963h1.926h0.005v2.571h-1.926v5.782H8.61v-5.782H6.685V8.072
	h1.768V5.823c0,0,0.158-2.248,2.407-2.248c2.248,0,2.248,0,2.248,0V6.146z"/>
</svg>
