<?xml version="1.0" encoding="utf-8"?>
<!-- Generator: Adobe Illustrator 16.0.0, SVG Export Plug-In . SVG Version: 6.00 Build 0)  -->
<!DOCTYPE svg PUBLIC "-//W3C//DTD SVG 1.1//EN" "http://www.w3.org/Graphics/SVG/1.1/DTD/svg11.dtd">
<svg version="1.1" id="Layer_1" xmlns="http://www.w3.org/2000/svg" xmlns:xlink="http://www.w3.org/1999/xlink" x="0px" y="0px"
	 width="20px" height="20px" viewBox="0 0 20 20" enable-background="new 0 0 20 20" xml:space="preserve">
<path fill="#FEFEFE" d="M15,0H5C2.238,0,0,2.238,0,5v10c0,2.762,2.238,5,5,5h10c2.762,0,5-2.238,5-5V5C20,2.238,17.762,0,15,0z
	 M4.604,7.213l3.676,2.813l-3.676,3.678V7.213z M4.965,14.061l3.72-3.723l1.503,1.149l1.504-1.15l3.722,3.724H4.965z M15.771,13.702
	l-3.674-3.677l3.674-2.813V13.702z M15.771,6.575l-5.584,4.281L4.604,6.575V5.938h11.168V6.575z"/>
</svg>
