<?xml version="1.0" encoding="utf-8"?>
<!-- Generator: Adobe Illustrator 16.0.0, SVG Export Plug-In . SVG Version: 6.00 Build 0)  -->
<!DOCTYPE svg PUBLIC "-//W3C//DTD SVG 1.1//EN" "http://www.w3.org/Graphics/SVG/1.1/DTD/svg11.dtd">
<svg version="1.1" id="Layer_1" xmlns="http://www.w3.org/2000/svg" xmlns:xlink="http://www.w3.org/1999/xlink" x="0px" y="0px"
	 width="20px" height="20px" viewBox="0 0 20 20" enable-background="new 0 0 20 20" xml:space="preserve">
<g>
	<path fill="#FEFEFE" d="M10.048,8.936c0.174-0.01,0.347-0.056,0.532-0.143c0.199-0.093,0.337-0.221,0.413-0.389
		c0.078-0.163,0.113-0.357,0.113-0.578h0.01c0-0.158-0.041-0.327-0.123-0.496s-0.209-0.292-0.389-0.369
		c-0.163-0.071-0.357-0.112-0.588-0.117C9.791,6.839,9.454,6.833,9.004,6.833H8.83v2.118h0.317
		C9.577,8.951,9.873,8.946,10.048,8.936z"/>
	<path fill="#FEFEFE" d="M10.998,10.777c-0.152-0.062-0.363-0.092-0.628-0.098c-0.266-0.005-0.625-0.01-1.074-0.01H8.835v2.501
		h0.134c0.653,0,1.104-0.006,1.354-0.015c0.251-0.011,0.506-0.067,0.768-0.18c0.225-0.097,0.394-0.24,0.502-0.435
		c0.106-0.188,0.158-0.404,0.158-0.645c0-0.312-0.062-0.548-0.19-0.727C11.435,10.997,11.249,10.863,10.998,10.777z"/>
	<path fill="#FEFEFE" d="M15,0H5C2.238,0,0,2.238,0,5v10c0,2.762,2.238,5,5,5h10c2.762,0,5-2.238,5-5V5C20,2.238,17.762,0,15,0z
		 M14.053,13.247c-0.189,0.374-0.439,0.686-0.758,0.932c-0.378,0.291-0.792,0.507-1.237,0.63c-0.45,0.128-1.023,0.188-1.719,0.188
		H6.334V5.003h3.534c0.736,0,1.294,0.025,1.668,0.087c0.379,0.056,0.736,0.173,1.068,0.353c0.357,0.194,0.624,0.45,0.804,0.772
		c0.179,0.322,0.266,0.696,0.266,1.115c0,0.485-0.123,0.92-0.368,1.299c-0.24,0.379-0.584,0.66-1.013,0.839v0.057
		c0.619,0.132,1.11,0.394,1.479,0.793c0.373,0.398,0.558,0.941,0.558,1.621h0.005C14.334,12.434,14.242,12.869,14.053,13.247z"/>
</g>
</svg>
