<?xml version="1.0" encoding="utf-8"?>
<!-- Generator: Adobe Illustrator 16.0.0, SVG Export Plug-In . SVG Version: 6.00 Build 0)  -->
<!DOCTYPE svg PUBLIC "-//W3C//DTD SVG 1.1//EN" "http://www.w3.org/Graphics/SVG/1.1/DTD/svg11.dtd">
<svg version="1.1" id="Layer_1" xmlns="http://www.w3.org/2000/svg" xmlns:xlink="http://www.w3.org/1999/xlink" x="0px" y="0px"
	 width="15.844px" height="25.859px" viewBox="0 0 15.844 25.859" enable-background="new 0 0 15.844 25.859" xml:space="preserve">
<g>
	<g>
		<path fill-rule="evenodd" clip-rule="evenodd" fill="#A0A09F" d="M15.826,12.841c0.012-0.662-0.273-1.389-0.849-1.964
			c-0.396-0.396-0.865-0.652-1.335-0.773L4.039,0.496C3.257-0.285,1.833-0.126,0.858,0.85c-0.977,0.977-1.135,2.401-0.354,3.182
			l8.881,8.884l-8.893,8.896c-0.779,0.779-0.616,2.207,0.364,3.189c0.981,0.98,2.409,1.145,3.188,0.363l9.599-9.602
			c0.476-0.116,0.95-0.371,1.351-0.771C15.624,14.363,15.908,13.55,15.826,12.841z"/>
	</g>
</g>
</svg>
