<?xml version="1.0" encoding="utf-8"?>
<!-- Generator: Adobe Illustrator 16.0.0, SVG Export Plug-In . SVG Version: 6.00 Build 0)  -->
<!DOCTYPE svg PUBLIC "-//W3C//DTD SVG 1.1//EN" "http://www.w3.org/Graphics/SVG/1.1/DTD/svg11.dtd">
<svg version="1.1" id="Layer_1" xmlns="http://www.w3.org/2000/svg" xmlns:xlink="http://www.w3.org/1999/xlink" x="0px" y="0px"
	 width="40px" height="32px" viewBox="0 0 40 32" enable-background="new 0 0 40 32" xml:space="preserve">
<g>
	<path d="M36.769,5.101h-6.49l-3.885-4.08c0,0-0.02-0.02-0.028-0.02l-0.021-0.021l0,0C25.769,0.38,24.99,0,24.104,0h-8.076
		c-0.942,0-1.779,0.42-2.365,1.09v0.011l-3.798,4H3.231C1.442,5.101,0,6.56,0,8.42v20.21C0,30.489,1.442,32,3.231,32h33.539
		C38.548,32,40,30.489,40,28.63V8.42C39.999,6.562,38.547,5.101,36.769,5.101z M19.999,26.951c-4.895,0-8.885-4.161-8.885-9.261
		c0-5.109,3.99-9.26,8.885-9.26c4.904,0,8.885,4.15,8.885,9.26C28.884,22.79,24.903,26.951,19.999,26.951z M36.162,10.451
		c-0.74,0-1.347-0.63-1.347-1.41s0.605-1.41,1.347-1.41s1.347,0.629,1.347,1.41C37.509,9.821,36.903,10.451,36.162,10.451z"/>
	<path d="M19.999,10.69c-3.711,0-6.711,3.131-6.711,7c0,3.86,3,7,6.711,7c3.702,0,6.712-3.131,6.712-7S23.701,10.69,19.999,10.69z"
		/>
</g>
</svg>
