<?xml version="1.0" encoding="utf-8"?>
<!-- Generator: Adobe Illustrator 16.0.0, SVG Export Plug-In . SVG Version: 6.00 Build 0)  -->
<!DOCTYPE svg PUBLIC "-//W3C//DTD SVG 1.1//EN" "http://www.w3.org/Graphics/SVG/1.1/DTD/svg11.dtd">
<svg version="1.1" id="Trash" xmlns="http://www.w3.org/2000/svg" xmlns:xlink="http://www.w3.org/1999/xlink" x="0px" y="0px"
	 width="12px" height="15.139px" viewBox="63.5 61.931 12 15.139" enable-background="new 63.5 61.931 12 15.139"
	 xml:space="preserve">
<g>
	<path d="M75.197,64.264v-0.036c0-1.269-0.767-2.298-1.712-2.298h-7.972c-0.946,0-1.712,1.029-1.712,2.298v0.036H75.197z"/>
	<path d="M75.258,66.223c-0.19-0.224-0.47-0.353-0.764-0.353h-9.99c-0.294,0-0.573,0.129-0.764,0.353s-0.274,0.52-0.229,0.81
		l1.452,9.188c0.077,0.489,0.498,0.849,0.993,0.849h7.084c0.495,0,0.916-0.359,0.993-0.849l1.452-9.188
		C75.533,66.743,75.449,66.447,75.258,66.223z M66.681,75.703c-0.017,0.002-0.034,0.003-0.051,0.003
		c-0.294,0-0.545-0.226-0.571-0.525l-0.601-6.867c-0.028-0.315,0.206-0.594,0.522-0.622c0.313-0.034,0.595,0.206,0.622,0.522
		l0.601,6.867C67.231,75.397,66.998,75.676,66.681,75.703z M70.073,75.132c0,0.316-0.257,0.574-0.574,0.574
		c-0.317,0-0.575-0.258-0.575-0.574v-6.894c0-0.317,0.257-0.575,0.575-0.575c0.317,0,0.574,0.257,0.574,0.575V75.132z
		 M72.865,75.181c-0.025,0.3-0.276,0.524-0.571,0.524c-0.016,0-0.033,0-0.051-0.002c-0.315-0.027-0.55-0.307-0.521-0.622
		l0.601-6.867c0.027-0.316,0.307-0.555,0.622-0.522c0.316,0.027,0.55,0.306,0.521,0.622L72.865,75.181z"/>
</g>
</svg>
