<?xml version="1.0" encoding="utf-8"?>
<!-- Generator: Adobe Illustrator 16.0.0, SVG Export Plug-In . SVG Version: 6.00 Build 0)  -->
<!DOCTYPE svg PUBLIC "-//W3C//DTD SVG 1.1//EN" "http://www.w3.org/Graphics/SVG/1.1/DTD/svg11.dtd">
<svg version="1.1" id="Layer_1" xmlns="http://www.w3.org/2000/svg" xmlns:xlink="http://www.w3.org/1999/xlink" x="0px" y="0px"
	 width="39.985px" height="40.001px" viewBox="0 0 39.985 40.001" enable-background="new 0 0 39.985 40.001" xml:space="preserve">
<g>
	<g>
		<path fill-rule="evenodd" clip-rule="evenodd" fill="#FFFFFF" d="M39.376,36.437l-8.815-8.858c-0.26-0.262-0.574-0.43-0.904-0.524
			c2.242-2.847,3.59-6.437,3.59-10.35C33.247,7.479,25.805,0,16.623,0C7.442,0,0,7.479,0,16.705c0,9.226,7.442,16.705,16.623,16.705
			c3.979,0,7.627-1.408,10.489-3.75c0.096,0.318,0.259,0.62,0.509,0.871l8.816,8.859c0.812,0.815,2.127,0.815,2.938,0
			S40.188,37.252,39.376,36.437z M16.499,30.002C9.043,30.002,3,23.958,3,16.501C3,9.044,9.043,3,16.499,3
			c7.456,0,13.499,6.044,13.499,13.501C29.997,23.958,23.954,30.002,16.499,30.002z"/>
	</g>
</g>
<g>
	<path fill="#FFFFFF" d="M18.581,22.919c0,1.149-0.932,2.081-2.081,2.081l0,0c-1.148,0-2.081-0.932-2.081-2.081V10.081
		C14.419,8.932,15.352,8,16.5,8l0,0c1.149,0,2.081,0.932,2.081,2.081V22.919z"/>
	<path fill="#FFFFFF" d="M22.92,14.419c1.148,0,2.08,0.932,2.08,2.082l0,0c0,1.148-0.932,2.081-2.08,2.081H10.082
		C8.932,18.581,8,17.649,8,16.5l0,0c0-1.149,0.932-2.082,2.082-2.082H22.92z"/>
</g>
</svg>
