<?xml version="1.0" encoding="utf-8"?>
<!-- Generator: Adobe Illustrator 16.0.0, SVG Export Plug-In . SVG Version: 6.00 Build 0)  -->
<!DOCTYPE svg PUBLIC "-//W3C//DTD SVG 1.1//EN" "http://www.w3.org/Graphics/SVG/1.1/DTD/svg11.dtd">
<svg version="1.1" id="Layer_1" xmlns="http://www.w3.org/2000/svg" xmlns:xlink="http://www.w3.org/1999/xlink" x="0px" y="0px"
	 width="14.895px" height="15px" viewBox="0 0 14.895 15" enable-background="new 0 0 14.895 15" xml:space="preserve">
<g>
	<path fill-rule="evenodd" clip-rule="evenodd" d="M13.16,7.322c-0.017-0.497-0.142-1.175-0.399-1.833
		c-0.361-0.926-0.918-1.703-1.688-2.331c-0.399-0.326-0.509-0.675-0.36-1.071c0.196-0.525,0.814-0.754,1.264-0.421
		c0.379,0.281,0.728,0.612,1.048,0.959c0.727,0.788,1.24,1.711,1.544,2.734c0.274,0.925,0.387,1.871,0.295,2.846
		c-0.141,1.512-0.681,2.854-1.625,4.028c-0.704,0.876-1.562,1.583-2.602,2.032c-0.528,0.228-1.076,0.438-1.636,0.561
		c-0.725,0.159-1.467,0.223-2.219,0.132c-0.735-0.088-1.445-0.24-2.131-0.518c-1.431-0.581-2.558-1.525-3.416-2.803
		c-0.444-0.662-0.776-1.381-0.972-2.146C0.056,8.673-0.07,7.832,0.043,6.978c0.06-0.449,0.098-0.907,0.212-1.343
		c0.17-0.647,0.43-1.266,0.772-1.845c0.456-0.771,1.037-1.437,1.72-2.013c0.477-0.402,1.084-0.324,1.386,0.171
		C4.378,2.351,4.26,2.83,3.82,3.174C3.077,3.756,2.543,4.503,2.187,5.361C1.761,6.387,1.618,7.465,1.841,8.563
		c0.381,1.873,1.419,3.26,3.138,4.116c0.838,0.417,1.733,0.624,2.668,0.574c1.684-0.09,3.089-0.762,4.188-2.063
		c0.369-0.438,0.667-0.917,0.883-1.438C13.01,9.044,13.168,8.3,13.16,7.322z"/>
	<path fill-rule="evenodd" clip-rule="evenodd" d="M6.288,4.058c0-0.952-0.003-1.904,0-2.855C6.291,0.516,6.807-0.002,7.478,0
		c0.617,0.002,1.129,0.523,1.141,1.173c0.008,0.424,0.001,0.849,0.001,1.273c0,1.485,0.001,2.971-0.001,4.457
		c0,0.501-0.21,0.89-0.665,1.115C7.338,8.323,6.571,8.01,6.366,7.346C6.313,7.172,6.294,6.981,6.293,6.798
		C6.285,5.885,6.289,4.972,6.288,4.058L6.288,4.058z"/>
</g>
</svg>
