<?xml version="1.0" encoding="utf-8"?>
<!-- Generator: Adobe Illustrator 16.0.0, SVG Export Plug-In . SVG Version: 6.00 Build 0)  -->
<!DOCTYPE svg PUBLIC "-//W3C//DTD SVG 1.1//EN" "http://www.w3.org/Graphics/SVG/1.1/DTD/svg11.dtd">
<svg version="1.1" id="Layer_1" xmlns="http://www.w3.org/2000/svg" xmlns:xlink="http://www.w3.org/1999/xlink" x="0px" y="0px"
	 width="14.994px" height="14.988px" viewBox="0 0 14.994 14.988" enable-background="new 0 0 14.994 14.988" xml:space="preserve">
<g>
	<g>
		<path fill-rule="evenodd" clip-rule="evenodd" fill="#323232" d="M14.766,13.653l-3.306-3.319
			c-0.099-0.099-0.219-0.154-0.345-0.188c0.845-1.068,1.353-2.417,1.353-3.886C12.468,2.803,9.677,0,6.233,0
			C2.791,0,0,2.803,0,6.259c0,3.458,2.791,6.259,6.233,6.259c1.495,0,2.865-0.529,3.939-1.409c0.036,0.12,0.091,0.235,0.186,0.33
			l3.306,3.32c0.305,0.306,0.798,0.306,1.102,0C15.07,14.454,15.07,13.959,14.766,13.653z M6.187,11.242
			c-2.795,0-5.062-2.265-5.062-5.059c0-2.794,2.267-5.059,5.062-5.059c2.796,0,5.063,2.265,5.063,5.059
			C11.249,8.978,8.982,11.242,6.187,11.242z"/>
	</g>
</g>
</svg>
