<?xml version="1.0" encoding="utf-8"?>
<!-- Generator: Adobe Illustrator 16.0.0, SVG Export Plug-In . SVG Version: 6.00 Build 0)  -->
<!DOCTYPE svg PUBLIC "-//W3C//DTD SVG 1.1//EN" "http://www.w3.org/Graphics/SVG/1.1/DTD/svg11.dtd">
<svg version="1.1" id="Layer_1" xmlns="http://www.w3.org/2000/svg" xmlns:xlink="http://www.w3.org/1999/xlink" x="0px" y="0px"
	 width="26.703px" height="20.953px" viewBox="0 0 26.703 20.953" enable-background="new 0 0 26.703 20.953" xml:space="preserve">
<path fill-rule="evenodd" clip-rule="evenodd" fill="#FFFFFF" d="M26.703,2.533c0,1.399-1.134,2.532-2.533,2.532H2.532
	C1.134,5.065,0,3.932,0,2.533l0,0C0,1.134,1.134,0,2.532,0H24.17C25.569,0,26.703,1.134,26.703,2.533L26.703,2.533z"/>
<path fill-rule="evenodd" clip-rule="evenodd" fill="#FFFFFF" d="M25.961,16.629L15.195,5.864c-0.018-0.019-0.029-0.04-0.048-0.059
	c-0.496-0.495-1.146-0.742-1.796-0.74c-0.649-0.002-1.3,0.245-1.796,0.74c-0.019,0.019-0.03,0.04-0.048,0.059L0.742,16.629
	c-0.989,0.989-0.989,2.592,0,3.582c0.989,0.988,2.593,0.988,3.582,0l9.027-9.028l9.027,9.028c0.989,0.988,2.593,0.988,3.582,0
	C26.95,19.221,26.95,17.619,25.961,16.629z"/>
</svg>
